<mxfile host="app.diagrams.net" agent="Mozilla/5.0 (Windows NT 10.0; Win64; x64) AppleWebKit/537.36 (KHTML, like Gecko) Chrome/129.0.0.0 Safari/537.36" version="24.8.0">
  <diagram name="PÃ¡gina-1" id="xucKO0_YMe7kBY9NIf0U">
    <mxGraphModel grid="1" page="1" gridSize="10" guides="1" tooltips="1" connect="1" arrows="1" fold="1" pageScale="1" pageWidth="827" pageHeight="1169" math="0" shadow="0">
      <root>
        <mxCell id="0" />
        <mxCell id="1" parent="0" />
        <mxCell id="LrU27AtFa5S8sX_w8rPn-69" value="" style="endArrow=none;html=1;rounded=0;fontSize=12;startSize=8;endSize=8;entryX=-0.006;entryY=0.433;entryDx=0;entryDy=0;entryPerimeter=0;" edge="1" parent="1">
          <mxGeometry width="50" height="50" relative="1" as="geometry">
            <mxPoint x="403" y="-382" as="sourcePoint" />
            <mxPoint x="672" y="-391" as="targetPoint" />
            <Array as="points">
              <mxPoint x="533" y="-382" />
              <mxPoint x="533" y="-392" />
            </Array>
          </mxGeometry>
        </mxCell>
        <mxCell id="LrU27AtFa5S8sX_w8rPn-70" value="" style="endArrow=classic;html=1;rounded=0;fontSize=12;startSize=8;endSize=8;edgeStyle=elbowEdgeStyle;exitX=0.997;exitY=0.36;exitDx=0;exitDy=0;exitPerimeter=0;" edge="1" parent="1" source="LrU27AtFa5S8sX_w8rPn-86">
          <mxGeometry width="50" height="50" relative="1" as="geometry">
            <mxPoint x="362" y="-520" as="sourcePoint" />
            <mxPoint x="572" y="-565" as="targetPoint" />
          </mxGeometry>
        </mxCell>
        <mxCell id="LrU27AtFa5S8sX_w8rPn-71" value="&lt;span style=&quot;font-weight: 400;&quot;&gt;Bank&lt;/span&gt;" style="swimlane;whiteSpace=wrap;html=1;fillColor=#cdeb8b;strokeColor=#36393d;" vertex="1" parent="1">
          <mxGeometry x="292" y="-780" width="150" height="120" as="geometry">
            <mxRectangle x="60" y="210" width="90" height="30" as="alternateBounds" />
          </mxGeometry>
        </mxCell>
        <mxCell id="LrU27AtFa5S8sX_w8rPn-72" value="" style="rounded=0;whiteSpace=wrap;html=1;fillColor=#cdeb8b;strokeColor=#36393d;" vertex="1" parent="LrU27AtFa5S8sX_w8rPn-71">
          <mxGeometry y="24" width="150" height="96" as="geometry" />
        </mxCell>
        <mxCell id="LrU27AtFa5S8sX_w8rPn-73" value="" style="endArrow=none;html=1;rounded=0;" edge="1" parent="LrU27AtFa5S8sX_w8rPn-71">
          <mxGeometry width="50" height="50" relative="1" as="geometry">
            <mxPoint y="83" as="sourcePoint" />
            <mxPoint x="150" y="83" as="targetPoint" />
          </mxGeometry>
        </mxCell>
        <mxCell id="LrU27AtFa5S8sX_w8rPn-74" value="&lt;span style=&quot;text-align: left;&quot;&gt;+code&lt;/span&gt;" style="text;html=1;align=center;verticalAlign=middle;whiteSpace=wrap;rounded=0;" vertex="1" parent="LrU27AtFa5S8sX_w8rPn-71">
          <mxGeometry x="-23" y="30" width="90" height="30" as="geometry" />
        </mxCell>
        <mxCell id="LrU27AtFa5S8sX_w8rPn-75" value="&lt;span style=&quot;text-align: left;&quot;&gt;+address&lt;/span&gt;" style="text;html=1;align=center;verticalAlign=middle;whiteSpace=wrap;rounded=0;" vertex="1" parent="LrU27AtFa5S8sX_w8rPn-71">
          <mxGeometry x="10" y="47" width="40" height="30" as="geometry" />
        </mxCell>
        <mxCell id="LrU27AtFa5S8sX_w8rPn-76" value="&lt;span style=&quot;text-align: left;&quot;&gt;+maintains()&lt;/span&gt;" style="text;html=1;align=center;verticalAlign=middle;whiteSpace=wrap;rounded=0;" vertex="1" parent="LrU27AtFa5S8sX_w8rPn-71">
          <mxGeometry x="9" y="105" width="64" height="10" as="geometry" />
        </mxCell>
        <mxCell id="LrU27AtFa5S8sX_w8rPn-77" value="&lt;div style=&quot;text-align: left;&quot;&gt;&lt;span style=&quot;background-color: initial;&quot;&gt;+manages()&lt;/span&gt;&lt;/div&gt;" style="text;html=1;align=center;verticalAlign=middle;whiteSpace=wrap;rounded=0;" vertex="1" parent="LrU27AtFa5S8sX_w8rPn-71">
          <mxGeometry y="85" width="81" height="20" as="geometry" />
        </mxCell>
        <mxCell id="LrU27AtFa5S8sX_w8rPn-78" value="&lt;span style=&quot;font-weight: 400;&quot;&gt;ATM&lt;/span&gt;" style="swimlane;whiteSpace=wrap;html=1;fillColor=#cdeb8b;strokeColor=#36393d;" vertex="1" parent="1">
          <mxGeometry x="572" y="-630" width="150" height="120" as="geometry">
            <mxRectangle x="60" y="210" width="90" height="30" as="alternateBounds" />
          </mxGeometry>
        </mxCell>
        <mxCell id="LrU27AtFa5S8sX_w8rPn-79" value="" style="rounded=0;whiteSpace=wrap;html=1;fillColor=#cdeb8b;strokeColor=#36393d;" vertex="1" parent="LrU27AtFa5S8sX_w8rPn-78">
          <mxGeometry y="24" width="150" height="96" as="geometry" />
        </mxCell>
        <mxCell id="LrU27AtFa5S8sX_w8rPn-80" value="" style="endArrow=none;html=1;rounded=0;fillColor=#cdeb8b;strokeColor=#36393d;" edge="1" parent="LrU27AtFa5S8sX_w8rPn-78">
          <mxGeometry width="50" height="50" relative="1" as="geometry">
            <mxPoint y="83" as="sourcePoint" />
            <mxPoint x="150" y="83" as="targetPoint" />
          </mxGeometry>
        </mxCell>
        <mxCell id="LrU27AtFa5S8sX_w8rPn-81" value="&lt;span style=&quot;text-align: left;&quot;&gt;+location&lt;/span&gt;" style="text;html=1;align=center;verticalAlign=middle;whiteSpace=wrap;rounded=0;" vertex="1" parent="LrU27AtFa5S8sX_w8rPn-78">
          <mxGeometry x="-16" y="30" width="90" height="30" as="geometry" />
        </mxCell>
        <mxCell id="LrU27AtFa5S8sX_w8rPn-82" value="&lt;span style=&quot;text-align: left;&quot;&gt;+managedby&lt;/span&gt;" style="text;html=1;align=center;verticalAlign=middle;whiteSpace=wrap;rounded=0;" vertex="1" parent="LrU27AtFa5S8sX_w8rPn-78">
          <mxGeometry x="20" y="48" width="40" height="30" as="geometry" />
        </mxCell>
        <mxCell id="LrU27AtFa5S8sX_w8rPn-83" value="&lt;span style=&quot;text-align: left;&quot;&gt;+transactions()&lt;/span&gt;" style="text;html=1;align=center;verticalAlign=middle;whiteSpace=wrap;rounded=0;" vertex="1" parent="LrU27AtFa5S8sX_w8rPn-78">
          <mxGeometry x="12" y="105" width="64" height="10" as="geometry" />
        </mxCell>
        <mxCell id="LrU27AtFa5S8sX_w8rPn-84" value="&lt;div style=&quot;text-align: left;&quot;&gt;&lt;span style=&quot;background-color: initial;&quot;&gt;+identifies()&lt;/span&gt;&lt;/div&gt;" style="text;html=1;align=center;verticalAlign=middle;whiteSpace=wrap;rounded=0;" vertex="1" parent="LrU27AtFa5S8sX_w8rPn-78">
          <mxGeometry x="-5" y="85" width="81" height="20" as="geometry" />
        </mxCell>
        <mxCell id="LrU27AtFa5S8sX_w8rPn-85" value="&lt;span style=&quot;font-weight: 400;&quot;&gt;Customer&lt;/span&gt;" style="swimlane;whiteSpace=wrap;html=1;fillColor=#cdeb8b;strokeColor=#36393d;" vertex="1" parent="1">
          <mxGeometry x="32" y="-610" width="190" height="170" as="geometry">
            <mxRectangle x="60" y="210" width="90" height="30" as="alternateBounds" />
          </mxGeometry>
        </mxCell>
        <mxCell id="LrU27AtFa5S8sX_w8rPn-86" value="" style="rounded=0;whiteSpace=wrap;html=1;fillColor=#cdeb8b;strokeColor=#36393d;" vertex="1" parent="LrU27AtFa5S8sX_w8rPn-85">
          <mxGeometry y="24" width="190" height="146" as="geometry" />
        </mxCell>
        <mxCell id="LrU27AtFa5S8sX_w8rPn-87" value="&lt;div style=&quot;text-align: left;&quot;&gt;&lt;span style=&quot;background-color: initial;&quot;&gt;+name&lt;/span&gt;&lt;/div&gt;" style="text;html=1;align=center;verticalAlign=middle;whiteSpace=wrap;rounded=0;" vertex="1" parent="LrU27AtFa5S8sX_w8rPn-85">
          <mxGeometry x="-18" y="20" width="90" height="30" as="geometry" />
        </mxCell>
        <mxCell id="LrU27AtFa5S8sX_w8rPn-88" value="&lt;div style=&quot;text-align: left;&quot;&gt;&lt;span style=&quot;background-color: initial;&quot;&gt;+address&lt;/span&gt;&lt;/div&gt;" style="text;html=1;align=center;verticalAlign=middle;whiteSpace=wrap;rounded=0;" vertex="1" parent="LrU27AtFa5S8sX_w8rPn-85">
          <mxGeometry x="13" y="39" width="40" height="30" as="geometry" />
        </mxCell>
        <mxCell id="LrU27AtFa5S8sX_w8rPn-89" value="&lt;span style=&quot;text-align: left;&quot;&gt;+dob&lt;/span&gt;" style="text;html=1;align=center;verticalAlign=middle;whiteSpace=wrap;rounded=0;" vertex="1" parent="LrU27AtFa5S8sX_w8rPn-85">
          <mxGeometry x="-20" y="58" width="84" height="30" as="geometry" />
        </mxCell>
        <mxCell id="LrU27AtFa5S8sX_w8rPn-90" value="&lt;span style=&quot;text-align: left;&quot;&gt;+card number&lt;/span&gt;" style="text;html=1;align=center;verticalAlign=middle;whiteSpace=wrap;rounded=0;" vertex="1" parent="LrU27AtFa5S8sX_w8rPn-85">
          <mxGeometry x="-11" y="76" width="114" height="30" as="geometry" />
        </mxCell>
        <mxCell id="LrU27AtFa5S8sX_w8rPn-91" value="&lt;div style=&quot;text-align: left;&quot;&gt;&lt;span style=&quot;background-color: initial;&quot;&gt;+verifyPassword()&lt;/span&gt;&lt;/div&gt;" style="text;html=1;align=center;verticalAlign=middle;whiteSpace=wrap;rounded=0;" vertex="1" parent="LrU27AtFa5S8sX_w8rPn-85">
          <mxGeometry y="142" width="116" height="15" as="geometry" />
        </mxCell>
        <mxCell id="LrU27AtFa5S8sX_w8rPn-92" value="&lt;span style=&quot;text-align: left;&quot;&gt;+pin&lt;/span&gt;" style="text;html=1;align=center;verticalAlign=middle;whiteSpace=wrap;rounded=0;" vertex="1" parent="LrU27AtFa5S8sX_w8rPn-85">
          <mxGeometry x="-19" y="94" width="80" height="30" as="geometry" />
        </mxCell>
        <mxCell id="LrU27AtFa5S8sX_w8rPn-93" value="" style="endArrow=none;html=1;rounded=0;" edge="1" parent="LrU27AtFa5S8sX_w8rPn-85">
          <mxGeometry width="50" height="50" relative="1" as="geometry">
            <mxPoint y="130" as="sourcePoint" />
            <mxPoint x="190" y="130" as="targetPoint" />
          </mxGeometry>
        </mxCell>
        <mxCell id="LrU27AtFa5S8sX_w8rPn-94" value="&lt;span style=&quot;font-weight: 400;&quot;&gt;Account&lt;/span&gt;" style="swimlane;whiteSpace=wrap;html=1;fillColor=#cdeb8b;strokeColor=#36393d;" vertex="1" parent="1">
          <mxGeometry x="292" y="-460" width="150" height="140" as="geometry">
            <mxRectangle x="60" y="210" width="90" height="30" as="alternateBounds" />
          </mxGeometry>
        </mxCell>
        <mxCell id="LrU27AtFa5S8sX_w8rPn-95" value="" style="rounded=0;whiteSpace=wrap;html=1;fillColor=#cdeb8b;strokeColor=#36393d;" vertex="1" parent="LrU27AtFa5S8sX_w8rPn-94">
          <mxGeometry y="24" width="150" height="116" as="geometry" />
        </mxCell>
        <mxCell id="LrU27AtFa5S8sX_w8rPn-96" value="&lt;span style=&quot;text-align: left;&quot;&gt;+number&lt;/span&gt;" style="text;html=1;align=center;verticalAlign=middle;whiteSpace=wrap;rounded=0;" vertex="1" parent="LrU27AtFa5S8sX_w8rPn-94">
          <mxGeometry x="-14" y="20" width="90" height="30" as="geometry" />
        </mxCell>
        <mxCell id="LrU27AtFa5S8sX_w8rPn-97" value="&lt;span style=&quot;text-align: left;&quot;&gt;+balance&lt;/span&gt;" style="text;html=1;align=center;verticalAlign=middle;whiteSpace=wrap;rounded=0;" vertex="1" parent="LrU27AtFa5S8sX_w8rPn-94">
          <mxGeometry x="12" y="39" width="40" height="30" as="geometry" />
        </mxCell>
        <mxCell id="LrU27AtFa5S8sX_w8rPn-98" value="&lt;span style=&quot;text-align: left;&quot;&gt;+withdraw()&lt;/span&gt;" style="text;html=1;align=center;verticalAlign=middle;whiteSpace=wrap;rounded=0;" vertex="1" parent="LrU27AtFa5S8sX_w8rPn-94">
          <mxGeometry x="-18" y="90" width="114" height="30" as="geometry" />
        </mxCell>
        <mxCell id="LrU27AtFa5S8sX_w8rPn-99" value="&lt;div style=&quot;text-align: left;&quot;&gt;&lt;span style=&quot;background-color: initial;&quot;&gt;+deposit()&lt;/span&gt;&lt;/div&gt;" style="text;html=1;align=center;verticalAlign=middle;whiteSpace=wrap;rounded=0;" vertex="1" parent="LrU27AtFa5S8sX_w8rPn-94">
          <mxGeometry x="-23" y="80" width="116" height="15" as="geometry" />
        </mxCell>
        <mxCell id="LrU27AtFa5S8sX_w8rPn-100" value="" style="endArrow=none;html=1;rounded=0;" edge="1" parent="LrU27AtFa5S8sX_w8rPn-94">
          <mxGeometry width="50" height="50" relative="1" as="geometry">
            <mxPoint y="75" as="sourcePoint" />
            <mxPoint x="150" y="75" as="targetPoint" />
          </mxGeometry>
        </mxCell>
        <mxCell id="LrU27AtFa5S8sX_w8rPn-101" value="&lt;span style=&quot;text-align: left;&quot;&gt;createTransaction()&lt;/span&gt;" style="text;html=1;align=center;verticalAlign=middle;whiteSpace=wrap;rounded=0;" vertex="1" parent="LrU27AtFa5S8sX_w8rPn-94">
          <mxGeometry x="4" y="107" width="114" height="30" as="geometry" />
        </mxCell>
        <mxCell id="LrU27AtFa5S8sX_w8rPn-102" value="&lt;span style=&quot;font-weight: 400;&quot;&gt;ATM Transactions&lt;/span&gt;" style="swimlane;whiteSpace=wrap;html=1;fillColor=#cdeb8b;strokeColor=#36393d;" vertex="1" parent="1">
          <mxGeometry x="672" y="-475" width="190" height="170" as="geometry">
            <mxRectangle x="60" y="210" width="90" height="30" as="alternateBounds" />
          </mxGeometry>
        </mxCell>
        <mxCell id="LrU27AtFa5S8sX_w8rPn-103" value="" style="rounded=0;whiteSpace=wrap;html=1;fillColor=#cdeb8b;strokeColor=#36393d;" vertex="1" parent="LrU27AtFa5S8sX_w8rPn-102">
          <mxGeometry y="24" width="190" height="146" as="geometry" />
        </mxCell>
        <mxCell id="LrU27AtFa5S8sX_w8rPn-104" value="&lt;div style=&quot;text-align: left;&quot;&gt;&lt;span style=&quot;background-color: initial;&quot;&gt;+transaction id&lt;/span&gt;&lt;/div&gt;" style="text;html=1;align=center;verticalAlign=middle;whiteSpace=wrap;rounded=0;" vertex="1" parent="LrU27AtFa5S8sX_w8rPn-102">
          <mxGeometry x="1" y="20" width="90" height="30" as="geometry" />
        </mxCell>
        <mxCell id="LrU27AtFa5S8sX_w8rPn-105" value="&lt;div style=&quot;text-align: left;&quot;&gt;&lt;span style=&quot;background-color: initial;&quot;&gt;+date&lt;/span&gt;&lt;/div&gt;" style="text;html=1;align=center;verticalAlign=middle;whiteSpace=wrap;rounded=0;" vertex="1" parent="LrU27AtFa5S8sX_w8rPn-102">
          <mxGeometry x="2" y="39" width="40" height="30" as="geometry" />
        </mxCell>
        <mxCell id="LrU27AtFa5S8sX_w8rPn-106" value="&lt;span style=&quot;text-align: left;&quot;&gt;+type&lt;/span&gt;" style="text;html=1;align=center;verticalAlign=middle;whiteSpace=wrap;rounded=0;" vertex="1" parent="LrU27AtFa5S8sX_w8rPn-102">
          <mxGeometry x="-20" y="58" width="84" height="30" as="geometry" />
        </mxCell>
        <mxCell id="LrU27AtFa5S8sX_w8rPn-107" value="&lt;span style=&quot;text-align: left;&quot;&gt;+amount&lt;/span&gt;" style="text;html=1;align=center;verticalAlign=middle;whiteSpace=wrap;rounded=0;" vertex="1" parent="LrU27AtFa5S8sX_w8rPn-102">
          <mxGeometry x="-26" y="77" width="114" height="30" as="geometry" />
        </mxCell>
        <mxCell id="LrU27AtFa5S8sX_w8rPn-108" value="&lt;div style=&quot;text-align: left;&quot;&gt;&lt;span style=&quot;background-color: initial;&quot;&gt;+modifies()&lt;/span&gt;&lt;/div&gt;" style="text;html=1;align=center;verticalAlign=middle;whiteSpace=wrap;rounded=0;" vertex="1" parent="LrU27AtFa5S8sX_w8rPn-102">
          <mxGeometry x="-19" y="141" width="116" height="15" as="geometry" />
        </mxCell>
        <mxCell id="LrU27AtFa5S8sX_w8rPn-109" value="&lt;span style=&quot;text-align: left;&quot;&gt;+post balance&lt;/span&gt;" style="text;html=1;align=center;verticalAlign=middle;whiteSpace=wrap;rounded=0;" vertex="1" parent="LrU27AtFa5S8sX_w8rPn-102">
          <mxGeometry x="5" y="94" width="80" height="30" as="geometry" />
        </mxCell>
        <mxCell id="LrU27AtFa5S8sX_w8rPn-110" value="" style="endArrow=none;html=1;rounded=0;" edge="1" parent="LrU27AtFa5S8sX_w8rPn-102">
          <mxGeometry width="50" height="50" relative="1" as="geometry">
            <mxPoint y="130" as="sourcePoint" />
            <mxPoint x="190" y="130" as="targetPoint" />
          </mxGeometry>
        </mxCell>
        <mxCell id="LrU27AtFa5S8sX_w8rPn-111" value="&lt;span style=&quot;font-weight: 400;&quot;&gt;Current Account&lt;/span&gt;" style="swimlane;whiteSpace=wrap;html=1;fillColor=#cdeb8b;strokeColor=#36393d;" vertex="1" parent="1">
          <mxGeometry x="52" y="-250" width="150" height="110" as="geometry">
            <mxRectangle x="60" y="210" width="90" height="30" as="alternateBounds" />
          </mxGeometry>
        </mxCell>
        <mxCell id="LrU27AtFa5S8sX_w8rPn-112" value="" style="rounded=0;whiteSpace=wrap;html=1;fillColor=#cdeb8b;strokeColor=#36393d;" vertex="1" parent="LrU27AtFa5S8sX_w8rPn-111">
          <mxGeometry y="24" width="150" height="86" as="geometry" />
        </mxCell>
        <mxCell id="LrU27AtFa5S8sX_w8rPn-113" value="" style="endArrow=none;html=1;rounded=0;" edge="1" parent="LrU27AtFa5S8sX_w8rPn-111">
          <mxGeometry width="50" height="50" relative="1" as="geometry">
            <mxPoint y="83" as="sourcePoint" />
            <mxPoint x="150" y="83" as="targetPoint" />
          </mxGeometry>
        </mxCell>
        <mxCell id="LrU27AtFa5S8sX_w8rPn-114" value="&lt;span style=&quot;text-align: left;&quot;&gt;+account no.&lt;/span&gt;" style="text;html=1;align=center;verticalAlign=middle;whiteSpace=wrap;rounded=0;" vertex="1" parent="LrU27AtFa5S8sX_w8rPn-111">
          <mxGeometry x="-4.5" y="24" width="90" height="30" as="geometry" />
        </mxCell>
        <mxCell id="LrU27AtFa5S8sX_w8rPn-115" value="&lt;span style=&quot;text-align: left;&quot;&gt;+balance&lt;/span&gt;" style="text;html=1;align=center;verticalAlign=middle;whiteSpace=wrap;rounded=0;" vertex="1" parent="LrU27AtFa5S8sX_w8rPn-111">
          <mxGeometry x="11" y="45" width="40" height="30" as="geometry" />
        </mxCell>
        <mxCell id="LrU27AtFa5S8sX_w8rPn-116" value="&lt;div style=&quot;text-align: left;&quot;&gt;&lt;span style=&quot;background-color: initial;&quot;&gt;+withdraw()&lt;/span&gt;&lt;/div&gt;" style="text;html=1;align=center;verticalAlign=middle;whiteSpace=wrap;rounded=0;" vertex="1" parent="LrU27AtFa5S8sX_w8rPn-111">
          <mxGeometry y="85" width="81" height="20" as="geometry" />
        </mxCell>
        <mxCell id="LrU27AtFa5S8sX_w8rPn-117" value="&lt;span style=&quot;font-weight: 400;&quot;&gt;Saving Account&lt;/span&gt;" style="swimlane;whiteSpace=wrap;html=1;fillColor=#cdeb8b;strokeColor=#36393d;" vertex="1" parent="1">
          <mxGeometry x="472" y="-260" width="150" height="110" as="geometry">
            <mxRectangle x="60" y="210" width="90" height="30" as="alternateBounds" />
          </mxGeometry>
        </mxCell>
        <mxCell id="LrU27AtFa5S8sX_w8rPn-118" value="" style="rounded=0;whiteSpace=wrap;html=1;fillColor=#cdeb8b;strokeColor=#36393d;" vertex="1" parent="LrU27AtFa5S8sX_w8rPn-117">
          <mxGeometry y="24" width="150" height="86" as="geometry" />
        </mxCell>
        <mxCell id="LrU27AtFa5S8sX_w8rPn-119" value="" style="endArrow=none;html=1;rounded=0;" edge="1" parent="LrU27AtFa5S8sX_w8rPn-117">
          <mxGeometry width="50" height="50" relative="1" as="geometry">
            <mxPoint y="83" as="sourcePoint" />
            <mxPoint x="150" y="83" as="targetPoint" />
          </mxGeometry>
        </mxCell>
        <mxCell id="LrU27AtFa5S8sX_w8rPn-120" value="&lt;span style=&quot;text-align: left;&quot;&gt;+account no.&lt;/span&gt;" style="text;html=1;align=center;verticalAlign=middle;whiteSpace=wrap;rounded=0;" vertex="1" parent="LrU27AtFa5S8sX_w8rPn-117">
          <mxGeometry x="-4.5" y="24" width="90" height="30" as="geometry" />
        </mxCell>
        <mxCell id="LrU27AtFa5S8sX_w8rPn-121" value="&lt;span style=&quot;text-align: left;&quot;&gt;+balance&lt;/span&gt;" style="text;html=1;align=center;verticalAlign=middle;whiteSpace=wrap;rounded=0;" vertex="1" parent="LrU27AtFa5S8sX_w8rPn-117">
          <mxGeometry x="11" y="45" width="40" height="30" as="geometry" />
        </mxCell>
        <mxCell id="LrU27AtFa5S8sX_w8rPn-122" value="" style="endArrow=none;html=1;rounded=0;fontSize=12;startSize=8;endSize=8;curved=1;exitX=0.5;exitY=0;exitDx=0;exitDy=0;" edge="1" parent="1" source="LrU27AtFa5S8sX_w8rPn-94">
          <mxGeometry width="50" height="50" relative="1" as="geometry">
            <mxPoint x="367" y="-453" as="sourcePoint" />
            <mxPoint x="367" y="-533" as="targetPoint" />
          </mxGeometry>
        </mxCell>
        <mxCell id="LrU27AtFa5S8sX_w8rPn-123" value="" style="rhombus;whiteSpace=wrap;html=1;" vertex="1" parent="1">
          <mxGeometry x="346.5" y="-660" width="13" height="14" as="geometry" />
        </mxCell>
        <mxCell id="LrU27AtFa5S8sX_w8rPn-124" value="" style="rhombus;whiteSpace=wrap;html=1;" vertex="1" parent="1">
          <mxGeometry x="442" y="-720" width="13" height="14" as="geometry" />
        </mxCell>
        <mxCell id="LrU27AtFa5S8sX_w8rPn-125" value="" style="endArrow=none;html=1;rounded=0;fontSize=12;startSize=8;endSize=8;exitX=1;exitY=0.5;exitDx=0;exitDy=0;entryX=0.5;entryY=0;entryDx=0;entryDy=0;" edge="1" parent="1" source="LrU27AtFa5S8sX_w8rPn-124" target="LrU27AtFa5S8sX_w8rPn-78">
          <mxGeometry width="50" height="50" relative="1" as="geometry">
            <mxPoint x="562" y="-710" as="sourcePoint" />
            <mxPoint x="612" y="-760" as="targetPoint" />
            <Array as="points">
              <mxPoint x="647" y="-713" />
            </Array>
          </mxGeometry>
        </mxCell>
        <mxCell id="LrU27AtFa5S8sX_w8rPn-126" value="" style="endArrow=none;html=1;rounded=0;fontSize=12;startSize=8;endSize=8;curved=1;entryX=0.5;entryY=1;entryDx=0;entryDy=0;" edge="1" parent="1" target="LrU27AtFa5S8sX_w8rPn-123">
          <mxGeometry width="50" height="50" relative="1" as="geometry">
            <mxPoint x="353" y="-533" as="sourcePoint" />
            <mxPoint x="382" y="-640" as="targetPoint" />
          </mxGeometry>
        </mxCell>
        <mxCell id="LrU27AtFa5S8sX_w8rPn-127" value="" style="endArrow=none;html=1;rounded=0;fontSize=12;startSize=8;endSize=8;entryX=-0.007;entryY=0.386;entryDx=0;entryDy=0;entryPerimeter=0;exitX=0.5;exitY=1;exitDx=0;exitDy=0;" edge="1" parent="1" source="LrU27AtFa5S8sX_w8rPn-85" target="LrU27AtFa5S8sX_w8rPn-95">
          <mxGeometry width="50" height="50" relative="1" as="geometry">
            <mxPoint x="162" y="-350" as="sourcePoint" />
            <mxPoint x="212" y="-400" as="targetPoint" />
            <Array as="points">
              <mxPoint x="127" y="-390" />
            </Array>
          </mxGeometry>
        </mxCell>
        <mxCell id="LrU27AtFa5S8sX_w8rPn-128" value="" style="endArrow=none;html=1;rounded=0;fontSize=12;startSize=8;endSize=8;exitX=0.5;exitY=0;exitDx=0;exitDy=0;entryX=0.5;entryY=0;entryDx=0;entryDy=0;" edge="1" parent="1" source="LrU27AtFa5S8sX_w8rPn-111" target="LrU27AtFa5S8sX_w8rPn-117">
          <mxGeometry width="50" height="50" relative="1" as="geometry">
            <mxPoint x="332" y="-210" as="sourcePoint" />
            <mxPoint x="382" y="-260" as="targetPoint" />
            <Array as="points">
              <mxPoint x="127" y="-280" />
              <mxPoint x="547" y="-280" />
            </Array>
          </mxGeometry>
        </mxCell>
        <mxCell id="LrU27AtFa5S8sX_w8rPn-129" value="" style="endArrow=classic;html=1;rounded=0;fontSize=12;startSize=8;endSize=8;entryX=0.5;entryY=1;entryDx=0;entryDy=0;" edge="1" parent="1" target="LrU27AtFa5S8sX_w8rPn-94">
          <mxGeometry width="50" height="50" relative="1" as="geometry">
            <mxPoint x="412" y="-280" as="sourcePoint" />
            <mxPoint x="372" y="-220" as="targetPoint" />
            <Array as="points">
              <mxPoint x="412" y="-300" />
              <mxPoint x="367" y="-300" />
            </Array>
          </mxGeometry>
        </mxCell>
        <mxCell id="LrU27AtFa5S8sX_w8rPn-130" value="" style="endArrow=none;html=1;rounded=0;fontSize=12;startSize=8;endSize=8;entryX=-0.006;entryY=0.433;entryDx=0;entryDy=0;entryPerimeter=0;" edge="1" parent="1" target="LrU27AtFa5S8sX_w8rPn-118">
          <mxGeometry width="50" height="50" relative="1" as="geometry">
            <mxPoint x="202" y="-190" as="sourcePoint" />
            <mxPoint x="422" y="-220" as="targetPoint" />
            <Array as="points">
              <mxPoint x="332" y="-190" />
              <mxPoint x="332" y="-200" />
            </Array>
          </mxGeometry>
        </mxCell>
        <mxCell id="LrU27AtFa5S8sX_w8rPn-131" value="&lt;font style=&quot;font-size: 12px;&quot;&gt;Saving-Checking&lt;/font&gt;" style="text;html=1;align=center;verticalAlign=middle;whiteSpace=wrap;rounded=0;fontSize=16;" vertex="1" parent="1">
          <mxGeometry x="376" y="-230" width="96" height="30" as="geometry" />
        </mxCell>
        <mxCell id="LrU27AtFa5S8sX_w8rPn-132" value="&lt;font style=&quot;font-size: 12px;&quot;&gt;1&lt;/font&gt;" style="text;html=1;align=center;verticalAlign=middle;whiteSpace=wrap;rounded=0;fontSize=16;" vertex="1" parent="1">
          <mxGeometry x="169" y="-220" width="96" height="30" as="geometry" />
        </mxCell>
        <mxCell id="LrU27AtFa5S8sX_w8rPn-133" value="&lt;font style=&quot;font-size: 12px;&quot;&gt;Has&amp;nbsp; &amp;nbsp; &amp;nbsp;1&lt;/font&gt;" style="text;html=1;align=center;verticalAlign=middle;whiteSpace=wrap;rounded=0;fontSize=16;" vertex="1" parent="1">
          <mxGeometry x="74" y="-440" width="96" height="30" as="geometry" />
        </mxCell>
        <mxCell id="LrU27AtFa5S8sX_w8rPn-134" value="&lt;font style=&quot;font-size: 12px;&quot;&gt;1,2&lt;/font&gt;" style="text;html=1;align=center;verticalAlign=middle;whiteSpace=wrap;rounded=0;fontSize=16;" vertex="1" parent="1">
          <mxGeometry x="179" y="-420" width="96" height="30" as="geometry" />
        </mxCell>
        <mxCell id="LrU27AtFa5S8sX_w8rPn-135" value="&lt;font style=&quot;font-size: 12px;&quot;&gt;Account Transaction&lt;/font&gt;" style="text;html=1;align=center;verticalAlign=middle;whiteSpace=wrap;rounded=0;fontSize=16;" vertex="1" parent="1">
          <mxGeometry x="552" y="-420" width="120" height="30" as="geometry" />
        </mxCell>
        <mxCell id="LrU27AtFa5S8sX_w8rPn-136" value="&lt;font style=&quot;font-size: 12px;&quot;&gt;1&lt;/font&gt;" style="text;html=1;align=center;verticalAlign=middle;whiteSpace=wrap;rounded=0;fontSize=16;" vertex="1" parent="1">
          <mxGeometry x="406" y="-390" width="96" height="30" as="geometry" />
        </mxCell>
      </root>
    </mxGraphModel>
  </diagram>
</mxfile>
